<svg width="242" height="94" viewBox="0 0 242 94" fill="none" xmlns="http://www.w3.org/2000/svg">
<g clip-path="url(#clip0_3_42)">
<path d="M43.76 79.4C43.76 79.816 43.856 80.168 44.048 80.456C44.24 80.712 44.56 80.888 45.008 80.984L49.808 81.8C50.064 81.864 50.256 81.944 50.384 82.04C50.544 82.104 50.624 82.248 50.624 82.472C50.624 82.824 50.4 83 49.952 83H22.352C22.192 83 22.048 82.968 21.92 82.904C21.824 82.808 21.776 82.696 21.776 82.568C21.776 82.408 21.808 82.296 21.872 82.232C21.968 82.136 22.128 82.056 22.352 81.992L25.616 81.176C26 81.048 26.272 80.888 26.432 80.696C26.592 80.472 26.672 80.184 26.672 79.832V43.448C26.672 43.224 26.608 43.016 26.48 42.824C26.384 42.632 26.224 42.504 26 42.44L21.44 41.048C21.248 40.952 21.104 40.872 21.008 40.808C20.944 40.712 20.912 40.6 20.912 40.472C20.912 40.344 20.96 40.232 21.056 40.136C21.184 40.008 21.36 39.944 21.584 39.944H27.632L26.672 40.568V40.328C26.672 39.592 26.432 38.84 25.952 38.072C25.504 37.304 24.992 36.472 24.416 35.576C23.84 34.68 23.312 33.656 22.832 32.504C22.384 31.352 22.16 30.008 22.16 28.472C22.16 23.928 23.52 20.424 26.24 17.96C28.96 15.496 32.736 14.264 37.568 14.264C40.736 14.264 43.328 14.792 45.344 15.848C47.392 16.872 48.896 18.248 49.856 19.976C50.848 21.704 51.344 23.624 51.344 25.736C51.344 28.36 50.672 30.296 49.328 31.544C48.016 32.792 46.304 33.416 44.192 33.416C42.016 33.416 40.208 32.68 38.768 31.208C37.328 29.704 36.608 27.736 36.608 25.304V18.776C36.608 17.656 36.416 16.856 36.032 16.376C35.68 15.896 35.088 15.656 34.256 15.656C32.976 15.656 31.984 16.136 31.28 17.096C30.576 18.024 30.224 19.416 30.224 21.272C30.224 23.32 30.672 25.176 31.568 26.84C32.464 28.472 33.568 29.976 34.88 31.352C36.224 32.696 37.552 33.928 38.864 35.048C40.208 36.168 41.328 37.224 42.224 38.216C43.12 39.208 43.568 40.168 43.568 41.096V41.576L42.752 39.944H50.192C50.512 39.944 50.736 39.976 50.864 40.04C50.992 40.104 51.056 40.248 51.056 40.472C51.056 40.824 50.864 41.096 50.48 41.288C50.128 41.448 49.632 41.528 48.992 41.528H43.76V79.4ZM92.5423 58.856C92.5423 59.304 92.3983 59.672 92.1103 59.96C91.8543 60.248 91.4383 60.392 90.8623 60.392H60.9103V59H74.2063C74.8463 59 75.1663 58.616 75.1663 57.848C75.1663 51.544 74.5903 47.032 73.4383 44.312C72.2863 41.592 71.0863 40.232 69.8383 40.232C68.9423 40.232 68.1263 40.68 67.3903 41.576C66.6543 42.472 66.0463 44.024 65.5663 46.232C65.0863 48.44 64.8463 51.48 64.8463 55.352C64.8463 61.912 66.1743 66.696 68.8303 69.704C71.4863 72.712 75.0223 74.216 79.4383 74.216C82.9263 74.216 85.7583 73.368 87.9343 71.672C90.1423 69.976 91.2943 67.688 91.3903 64.808C91.4543 64.616 91.5343 64.488 91.6303 64.424C91.7263 64.36 91.8063 64.328 91.8703 64.328C91.9983 64.328 92.1103 64.376 92.2063 64.472C92.3023 64.568 92.3503 64.728 92.3503 64.952C92.3503 68.568 91.4223 71.816 89.5663 74.696C87.7423 77.544 85.2303 79.816 82.0303 81.512C78.8623 83.176 75.2623 84.008 71.2303 84.008C66.8143 84.008 62.9103 83.08 59.5183 81.224C56.1263 79.336 53.4543 76.744 51.5022 73.448C49.5822 70.12 48.6222 66.312 48.6222 62.024C48.6222 57.192 49.5662 53.048 51.4542 49.592C53.3742 46.104 56.0782 43.432 59.5662 41.576C63.0863 39.72 67.2303 38.792 71.9983 38.792C76.2223 38.792 79.8703 39.672 82.9423 41.432C86.0143 43.16 88.3823 45.544 90.0463 48.584C91.7103 51.592 92.5423 55.016 92.5423 58.856ZM116.629 78.392V77.72L115.717 78.44V43.688C115.717 42.536 115.413 41.624 114.804 40.952C114.229 40.248 113.493 39.896 112.597 39.896C111.541 39.896 110.693 40.232 110.053 40.904C109.413 41.544 109.093 42.424 109.093 43.544V48.68C109.093 50.856 108.261 52.744 106.597 54.344C104.965 55.944 102.805 56.744 100.116 56.744C98.2925 56.744 96.8045 56.248 95.6525 55.256C94.5005 54.232 93.9245 52.696 93.9245 50.648C93.9245 48.856 94.6925 47.048 96.2285 45.224C97.7965 43.4 100.133 41.88 103.236 40.664C106.373 39.416 110.245 38.792 114.853 38.792C121.029 38.792 125.653 39.992 128.725 42.392C131.797 44.76 133.333 48.168 133.333 52.616V76.28C133.333 77.048 133.493 77.624 133.813 78.008C134.165 78.392 134.597 78.584 135.109 78.584C135.589 78.584 136.053 78.408 136.501 78.056C136.949 77.672 137.253 77.016 137.413 76.088C137.445 75.928 137.493 75.816 137.557 75.752C137.621 75.688 137.685 75.656 137.749 75.656C137.877 75.656 137.973 75.688 138.037 75.752C138.101 75.816 138.132 75.944 138.132 76.136C138.132 76.936 137.749 77.96 136.981 79.208C136.213 80.424 134.949 81.528 133.189 82.52C131.429 83.512 129.045 84.008 126.037 84.008C122.677 84.008 120.26 83.464 118.788 82.376C117.349 81.256 116.629 79.928 116.629 78.392ZM91.2845 73.352C91.2845 69.448 92.9165 66.392 96.1805 64.184C99.4445 61.976 104.853 60.872 112.405 60.872C113.877 60.872 115.045 61.032 115.908 61.352C116.773 61.64 117.557 62.04 118.261 62.552L117.684 63.176C116.948 62.76 116.245 62.472 115.573 62.312C114.901 62.152 114.117 62.072 113.221 62.072C111.813 62.072 110.693 62.792 109.861 64.232C109.029 65.672 108.613 67.896 108.613 70.904C108.613 73.72 109.045 75.768 109.909 77.048C110.773 78.296 111.877 78.92 113.221 78.92C113.957 78.92 114.708 78.664 115.476 78.152C116.277 77.64 116.901 76.984 117.349 76.184L118.021 76.808C116.741 79.112 114.837 80.888 112.309 82.136C109.812 83.384 107.109 84.008 104.197 84.008C100.453 84.008 97.3645 83.016 94.9325 81.032C92.5005 79.016 91.2845 76.456 91.2845 73.352ZM156.021 82.328C157.749 82.328 159.093 81.912 160.053 81.08C161.013 80.216 161.493 79.112 161.493 77.768C161.493 76.744 161.253 75.8 160.773 74.936C160.293 74.072 159.429 73.256 158.181 72.488C156.965 71.72 155.253 70.984 153.045 70.28C148.725 68.872 145.349 67.32 142.917 65.624C140.517 63.928 138.821 62.04 137.829 59.96C136.869 57.848 136.389 55.496 136.389 52.904C136.389 48.328 137.925 44.84 140.997 42.44C144.069 40.008 148.229 38.792 153.477 38.792C155.525 38.792 157.205 38.984 158.517 39.368C159.829 39.72 160.837 40.088 161.541 40.472C162.245 40.824 162.725 41 162.981 41C163.365 41 164.085 40.824 165.141 40.472C166.197 40.088 167.237 39.72 168.261 39.368C169.285 38.984 169.989 38.792 170.373 38.792C170.565 38.792 170.757 38.84 170.949 38.936C171.141 39.032 171.269 39.256 171.333 39.608L173.349 54.44C173.445 54.856 173.461 55.192 173.397 55.448C173.365 55.672 173.269 55.832 173.109 55.928C172.949 55.992 172.789 55.992 172.629 55.928C172.501 55.832 172.373 55.688 172.245 55.496C169.877 51.592 167.717 48.536 165.765 46.328C163.813 44.12 161.925 42.568 160.101 41.672C158.277 40.744 156.341 40.28 154.293 40.28C152.437 40.28 151.045 40.744 150.117 41.672C149.221 42.568 148.773 43.784 148.773 45.32C148.773 46.472 149.045 47.528 149.589 48.488C150.165 49.448 151.189 50.328 152.661 51.128C154.165 51.928 156.293 52.712 159.045 53.48C162.789 54.504 165.765 55.816 167.973 57.416C170.181 58.984 171.749 60.776 172.677 62.792C173.637 64.808 174.117 67.016 174.117 69.416C174.117 72.424 173.365 75.016 171.861 77.192C170.357 79.368 168.357 81.048 165.861 82.232C163.365 83.416 160.597 84.008 157.557 84.008C155.733 84.008 154.165 83.784 152.853 83.336C151.541 82.888 150.485 82.44 149.685 81.992C148.885 81.544 148.389 81.32 148.197 81.32C147.909 81.32 147.269 81.528 146.277 81.944C145.285 82.328 144.277 82.712 143.253 83.096C142.229 83.512 141.525 83.72 141.141 83.72C140.885 83.72 140.645 83.608 140.421 83.384C140.197 83.16 140.053 82.776 139.989 82.232L138.357 69.944C138.325 69.432 138.341 69.064 138.405 68.84C138.469 68.616 138.581 68.44 138.741 68.312C138.869 68.248 138.997 68.264 139.125 68.36C139.285 68.456 139.445 68.616 139.605 68.84C142.677 73.64 145.509 77.096 148.101 79.208C150.725 81.288 153.365 82.328 156.021 82.328ZM176.153 41.912L172.745 40.952C172.489 40.888 172.313 40.808 172.217 40.712C172.121 40.584 172.073 40.456 172.073 40.328C172.073 40.168 172.137 40.04 172.265 39.944C172.361 39.848 172.489 39.8 172.649 39.8H176.393C176.521 39.8 176.649 39.768 176.777 39.704C176.937 39.64 177.129 39.528 177.353 39.368L190.985 29.624C191.273 29.368 191.577 29.16 191.897 29C192.249 28.84 192.537 28.76 192.761 28.76C193.049 28.76 193.289 28.872 193.481 29.096C193.673 29.288 193.769 29.592 193.769 30.008V68.84C193.769 71.656 194.265 73.768 195.257 75.176C196.281 76.552 197.657 77.24 199.385 77.24C199.993 77.24 200.553 77.128 201.065 76.904C201.609 76.68 202.105 76.344 202.553 75.896C203.001 75.416 203.401 74.792 203.753 74.024C204.137 73.256 204.457 72.328 204.713 71.24C204.809 71.016 204.953 70.92 205.145 70.952C205.369 70.984 205.449 71.144 205.385 71.432C204.937 74.216 204.153 76.536 203.033 78.392C201.945 80.248 200.441 81.656 198.521 82.616C196.633 83.544 194.281 84.008 191.465 84.008C186.697 84.008 183.065 82.904 180.569 80.696C178.073 78.488 176.825 75.096 176.825 70.52V42.92C176.825 42.568 176.777 42.328 176.681 42.2C176.617 42.04 176.441 41.944 176.153 41.912ZM188.633 41.384L189.161 39.8H204.953C205.177 39.8 205.337 39.832 205.433 39.896C205.561 39.96 205.625 40.088 205.625 40.28C205.625 40.568 205.465 40.824 205.145 41.048C204.825 41.272 204.361 41.384 203.753 41.384H188.633ZM214.513 84.008C212.657 84.008 210.977 83.544 209.473 82.616C207.969 81.688 206.785 80.456 205.921 78.92C205.057 77.352 204.625 75.64 204.625 73.784C204.625 71.992 205.057 70.344 205.921 68.84C206.785 67.304 207.969 66.088 209.473 65.192C210.977 64.264 212.657 63.8 214.513 63.8C216.401 63.8 218.097 64.264 219.601 65.192C221.137 66.088 222.353 67.304 223.249 68.84C224.145 70.344 224.593 71.992 224.593 73.784C224.593 75.64 224.145 77.352 223.249 78.92C222.353 80.456 221.153 81.688 219.649 82.616C218.145 83.544 216.433 84.008 214.513 84.008Z" fill="#240B36"/>
<path d="M57.4 34V24H60.2C60.837 24 61.3407 24.1259 61.7111 24.3778C62.0889 24.6296 62.3593 24.937 62.5222 25.3C62.6852 25.6556 62.7667 25.9926 62.7667 26.3111C62.7667 26.6741 62.6815 27.0074 62.5111 27.3111C62.3481 27.6074 62.1259 27.8519 61.8444 28.0444C62.3852 28.2889 62.8222 28.6556 63.1556 29.1444C63.4963 29.6333 63.6667 30.1889 63.6667 30.8111C63.6667 31.337 63.5333 31.8444 63.2667 32.3333C63.0074 32.8222 62.6185 33.2222 62.1 33.5333C61.5889 33.8444 60.9556 34 60.2 34H57.4ZM58.6667 32.8667H60.1111C60.6593 32.8667 61.1 32.7593 61.4333 32.5444C61.7667 32.3296 62.0111 32.0593 62.1667 31.7333C62.3222 31.4074 62.4 31.0852 62.4 30.7667C62.4 30.4556 62.3259 30.137 62.1778 29.8111C62.0296 29.4852 61.7889 29.2148 61.4556 29C61.1222 28.7778 60.6741 28.6667 60.1111 28.6667H58.6667V32.8667ZM58.6667 27.6H60.1C60.537 27.6 60.8889 27.4963 61.1556 27.2889C61.4296 27.0741 61.5667 26.7704 61.5667 26.3778C61.5667 25.9704 61.4333 25.663 61.1667 25.4556C60.9 25.2407 60.5593 25.1333 60.1444 25.1333H58.6667V27.6ZM70.377 34.2C69.6585 34.2 68.9807 34.0667 68.3437 33.8C67.7141 33.5259 67.1585 33.1519 66.677 32.6778C66.2029 32.2037 65.8289 31.6519 65.5548 31.0222C65.2881 30.3926 65.1548 29.7185 65.1548 29C65.1548 28.2815 65.2881 27.6074 65.5548 26.9778C65.8289 26.3481 66.2029 25.7963 66.677 25.3222C67.1585 24.8481 67.7141 24.4778 68.3437 24.2111C68.9807 23.937 69.6585 23.8 70.377 23.8C71.1029 23.8 71.7807 23.937 72.4103 24.2111C73.04 24.4778 73.5918 24.8481 74.0659 25.3222C74.5474 25.7963 74.9215 26.3481 75.1881 26.9778C75.4622 27.6074 75.5992 28.2815 75.5992 29C75.5992 29.7185 75.4622 30.3926 75.1881 31.0222C74.9215 31.6519 74.5474 32.2037 74.0659 32.6778C73.5918 33.1519 73.04 33.5259 72.4103 33.8C71.7807 34.0667 71.1029 34.2 70.377 34.2ZM70.377 33C71.1103 33 71.7733 32.8222 72.3659 32.4667C72.9585 32.1037 73.4252 31.6185 73.7659 31.0111C74.1141 30.4037 74.2881 29.7333 74.2881 29C74.2881 28.2593 74.1141 27.5889 73.7659 26.9889C73.4252 26.3815 72.9585 25.9 72.3659 25.5444C71.7733 25.1815 71.1103 25 70.377 25C69.6437 25 68.9807 25.1815 68.3881 25.5444C67.8029 25.9 67.3363 26.3815 66.9881 26.9889C66.64 27.5889 66.4659 28.2593 66.4659 29C66.4659 29.7333 66.64 30.4037 66.9881 31.0111C67.3363 31.6185 67.8029 32.1037 68.3881 32.4667C68.9807 32.8222 69.6437 33 70.377 33ZM77.8627 34V24H80.3738C81.0034 24 81.5442 24.1259 81.996 24.3778C82.4479 24.6296 82.796 24.963 83.0405 25.3778C83.2923 25.7852 83.4183 26.2333 83.4183 26.7222C83.4183 27.2704 83.2627 27.763 82.9516 28.2C82.6405 28.637 82.2146 28.9593 81.6738 29.1667L85.0294 34H83.5516L80.3738 29.4H79.1294V34H77.8627ZM79.1294 28.3333H80.3738C80.8034 28.3333 81.1516 28.2556 81.4183 28.1C81.6923 27.937 81.8923 27.7333 82.0183 27.4889C82.1516 27.237 82.2183 26.9815 82.2183 26.7222C82.2183 26.2556 82.0479 25.8741 81.7072 25.5778C81.3738 25.2815 80.9294 25.1333 80.3738 25.1333H79.1294V28.3333ZM94.8612 34.3333L87.8612 26.8333V34H86.6612V23.6667L93.6613 31.1667V24H94.8612V34.3333ZM100.443 25.1333V24H107.043V25.1333H104.376V34H103.109V25.1333H100.443ZM112.63 34.2C111.912 34.2 111.234 34.0667 110.597 33.8C109.967 33.5259 109.412 33.1519 108.93 32.6778C108.456 32.2037 108.082 31.6519 107.808 31.0222C107.541 30.3926 107.408 29.7185 107.408 29C107.408 28.2815 107.541 27.6074 107.808 26.9778C108.082 26.3481 108.456 25.7963 108.93 25.3222C109.412 24.8481 109.967 24.4778 110.597 24.2111C111.234 23.937 111.912 23.8 112.63 23.8C113.356 23.8 114.034 23.937 114.663 24.2111C115.293 24.4778 115.845 24.8481 116.319 25.3222C116.801 25.7963 117.175 26.3481 117.441 26.9778C117.715 27.6074 117.852 28.2815 117.852 29C117.852 29.7185 117.715 30.3926 117.441 31.0222C117.175 31.6519 116.801 32.2037 116.319 32.6778C115.845 33.1519 115.293 33.5259 114.663 33.8C114.034 34.0667 113.356 34.2 112.63 34.2ZM112.63 33C113.363 33 114.026 32.8222 114.619 32.4667C115.212 32.1037 115.678 31.6185 116.019 31.0111C116.367 30.4037 116.541 29.7333 116.541 29C116.541 28.2593 116.367 27.5889 116.019 26.9889C115.678 26.3815 115.212 25.9 114.619 25.5444C114.026 25.1815 113.363 25 112.63 25C111.897 25 111.234 25.1815 110.641 25.5444C110.056 25.9 109.589 26.3815 109.241 26.9889C108.893 27.5889 108.719 28.2593 108.719 29C108.719 29.7333 108.893 30.4037 109.241 31.0111C109.589 31.6185 110.056 32.1037 110.641 32.4667C111.234 32.8222 111.897 33 112.63 33Z" fill="#240B36"/>
</g>
<defs>
<clipPath id="clip0_3_42">
<rect width="242" height="94" fill="white"/>
</clipPath>
</defs>
</svg>
